<mxfile host="app.diagrams.net" modified="2024-05-06T06:25:24.187Z" agent="Mozilla/5.0 (Windows NT 10.0; Win64; x64) AppleWebKit/537.36 (KHTML, like Gecko) Chrome/124.0.0.0 Safari/537.36" version="24.3.1" etag="YNHP4_2FmcY5o2PUBO39" type="github">
  <diagram name="Page-1" id="C4PDSAe4Qy8FXduzYxeb">
    <mxGraphModel>
      <root>
        <mxCell id="0" />
        <mxCell id="1" parent="0" />
      </root>
    </mxGraphModel>
  </diagram>
</mxfile>
